<svg id="oeil-svg" version="1.2" baseProfile="tiny" xmlns="http://www.w3.org/2000/svg" viewBox="0 0 122.6 148.1" xml:space="preserve">

  <!-- This is the path the animation targets -->
  <path fill="currentColor" d="M114 9.8v132c-.7.2-103.4.3-105.2.1 0-.2-.1-.3-.1-.5V9.9c35.1-.1 70.2-.1 105.3-.1M98 140.3c-.1-.8-.2-1.4-.3-2.1-.7-4.6-1.9-9-3.8-13.1-2-4.4-4.7-8.3-8.4-11.5-3.5-3.1-7.5-5.4-11.7-7.4-5.4-2.5-11.1-4.1-17-5q-8.7-1.35-16.5-5.4c-5.2-2.8-9.4-6.6-12.6-11.6-2.9-4.5-4.5-9.5-4.7-14.8-.1-2.6.2-5.2.8-7.7.2-.7.3-1.3.5-2.1-.4.1-.6.1-.9.2-3.1 1.1-5.9 2.7-8.3 5-1.9 1.9-3.5 4-4.7 6.4-.3.6-.4 1.1-.4 1.7v67.2c29.5.2 58.7.2 88 .2m14.5-129H10.2v56.4c3.8-5.4 8.8-9 15.2-10.4 3-13 10.5-21.6 23.5-24.9 5.4-1.4 10.8-1 16.1.8 8 2.8 13.9 8 17.8 15.5h.2c5.4-1.3 10.7-1.2 16.1-.2 4.4.8 8.6 2.2 12.6 4 .2.1.5.2.8.3zM63.1 67c-5.5-1.4-10.6-.4-15.1 3-.1-.1-.1-.1-.2-.1-.1-.2-.3-.5-.4-.7-3.7-5.6-8.5-9.5-15.3-10.4-1.6-.2-3.1-.2-4.7 0-.1.1-.1.3-.2.4-.6 2.8-.7 5.7-.1 8.6.9 4.5 2.9 8.4 5.8 11.8 1.9 2.2 4.2 4.1 6.9 5.2 2.9 1.2 5.9 1.4 9 1.3s6.1-.7 9.1-1c2.2-.3 4.4-.5 6.6-.7 1.7-.1 3.5 0 5.3.1 3.1.1 6.1.7 9.1 1.4 6.1 1.5 11.8 3.9 17.2 7 5.5 3.1 10.6 6.7 15.5 10.7.2.2.4.3.7.6V56c0-.5-.1-.8-.6-1-2.3-1.1-4.7-2.1-7.1-2.8-6.2-1.9-12.5-2.8-18.9-1.8-1.3.2-2.6.4-3.9.7-2.1.4-4.1 1.4-6 2.5-5.3 3-9.3 7.3-12.2 12.6-.1.1-.3.4-.5.8m-.8-1.8c.1-.1.1-.1.2-.1.1-.2.2-.4.3-.5 2.1-3.6 4.7-6.8 7.9-9.4.4-.3.5-.7.4-1.1-.3-1.8-.9-3.6-1.8-5.2-.3-.5-.6-.8-1.1-.9-4.8-1.7-9.6-2.2-14.6-1.5-4.8.7-9.1 2.3-13.1 5-.3.2-.6.5-.7.8-.6 2.3-.7 4.6-.2 7 .1.4.3.6.6.8 3.2 1.9 5.8 4.4 7.9 7.4.1.2.3.3.4.5 4.3-2.9 8.9-3.8 13.8-2.8M38.8 52.7c-1.9 1.4-3.6 2.9-5 4.7 1.7.6 3.3 1.1 5 1.7-.4-2.2-.4-4.3 0-6.4m36.8-1c-1.2-1-4.5-2.8-5.4-2.9.9 1.6 1.4 3.4 1.7 5.2 1.3-.7 2.5-1.5 3.7-2.3">

    <!-- **** ANIMATION MOVED INSIDE THE PATH IT ANIMATES **** -->
    <animate id="speak"
            attributeName="d"
            values="M114 9.8v132c-.7.2-103.4.3-105.2.1 0-.2-.1-.3-.1-.5V9.9c35.1-.1 70.2-.1 105.3-.1M98 140.3c-.1-.8-.2-1.4-.3-2.1-.7-4.6-1.9-9-3.8-13.1-2-4.4-4.7-8.3-8.4-11.5-3.5-3.1-7.5-5.4-11.7-7.4-5.4-2.5-11.1-4.1-17-5q-8.7-1.35-16.5-5.4c-5.2-2.8-9.4-6.6-12.6-11.6-2.9-4.5-4.5-9.5-4.7-14.8-.1-2.6.2-5.2.8-7.7.2-.7.3-1.3.5-2.1-.4.1-.6.1-.9.2-3.1 1.1-5.9 2.7-8.3 5-1.9 1.9-3.5 4-4.7 6.4-.3.6-.4 1.1-.4 1.7v67.2c29.5.2 58.7.2 88 .2m14.5-129H10.2v56.4c3.8-5.4 8.8-9 15.2-10.4 3-13 10.5-21.6 23.5-24.9 5.4-1.4 10.8-1 16.1.8 8 2.8 13.9 8 17.8 15.5h.2c5.4-1.3 10.7-1.2 16.1-.2 4.4.8 8.6 2.2 12.6 4 .2.1.5.2.8.3zM63.1 67c-5.5-1.4-10.6-.4-15.1 3-.1-.1-.1-.1-.2-.1-.1-.2-.3-.5-.4-.7-3.7-5.6-8.5-9.5-15.3-10.4-1.6-.2-3.1-.2-4.7 0-.1.1-.1.3-.2.4-.6 2.8-.7 5.7-.1 8.6.9 4.5 2.9 8.4 5.8 11.8 1.9 2.2 4.2 4.1 6.9 5.2 2.9 1.2 5.9 1.4 9 1.3s6.1-.7 9.1-1c2.2-.3 4.4-.5 6.6-.7 1.7-.1 3.5 0 5.3.1 3.1.1 6.1.7 9.1 1.4 6.1 1.5 11.8 3.9 17.2 7 5.5 3.1 10.6 6.7 15.5 10.7.2.2.4.3.7.6V56c0-.5-.1-.8-.6-1-2.3-1.1-4.7-2.1-7.1-2.8-6.2-1.9-12.5-2.8-18.9-1.8-1.3.2-2.6.4-3.9.7-2.1.4-4.1 1.4-6 2.5-5.3 3-9.3 7.3-12.2 12.6-.1.1-.3.4-.5.8m-.8-1.8c.1-.1.1-.1.2-.1.1-.2.2-.4.3-.5 2.1-3.6 4.7-6.8 7.9-9.4.4-.3.5-.7.4-1.1-.3-1.8-.9-3.6-1.8-5.2-.3-.5-.6-.8-1.1-.9-4.8-1.7-9.6-2.2-14.6-1.5-4.8.7-9.1 2.3-13.1 5-.3.2-.6.5-.7.8-.6 2.3-.7 4.6-.2 7 .1.4.3.6.6.8 3.2 1.9 5.8 4.4 7.9 7.4.1.2.3.3.4.5 4.3-2.9 8.9-3.8 13.8-2.8M38.8 52.7c-1.9 1.4-3.6 2.9-5 4.7 1.7.6 3.3 1.1 5 1.7-.4-2.2-.4-4.3 0-6.4m36.8-1c-1.2-1-4.5-2.8-5.4-2.9.9 1.6 1.4 3.4 1.7 5.2 1.3-.7 2.5-1.5 3.7-2.3; m 114,9.8 v 132 c -0.7,0.2 -103.4,0.3 -105.2,0.1 0,-0.2 -0.1,-0.3 -0.1,-0.5 V 9.9 C 43.8,9.8 78.9,9.8 114,9.8 M 98,140.3 c -0.1,-0.8 -0.2,-1.4 -0.3,-2.1 -0.7,-4.6 -1.9,-9 -3.8,-13.1 -2,-4.4 -4.7,-8.3 -8.4,-11.5 -3.5,-3.1 -7.5,-5.4 -11.7,-7.4 -5.4,-2.5 -11.1,-4.1 -17,-5 C 51,100.3 45.5,98.5 40.3,95.8 35.1,93 30.9,89.2 27.7,84.2 24.8,79.7 23.2,74.7 23,69.4 c -0.1,-2.6 0.2,-5.2 0.8,-7.7 0.2,-0.7 0.3,-1.3 0.5,-2.1 -0.4,0.1 -0.6,0.1 -0.9,0.2 -3.1,1.1 -5.9,2.7 -8.3,5 -1.9,1.9 -3.5,4 -4.7,6.4 -0.3,0.6 -0.4,1.1 -0.4,1.7 v 67.2 c 29.5,0.2 58.7,0.2 88,0.2 m 14.5,-129 H 10.2 v 56.4 c 3.8,-5.4 8.8,-9 15.2,-10.4 3,-13 10.5,-21.6 23.5,-24.9 5.4,-1.4 10.8,-1 16.1,0.8 8,2.8 13.9,8 17.8,15.5 H 83 c 5.4,-1.3 10.7,-1.2 16.1,-0.2 4.4,0.8 8.6,2.2 12.6,4 0.2,0.1 0.5,0.2 0.8,0.3 z M 63.1,67 C 57.6,65.6 52.5,66.6 48,70 47.9,69.9 47.9,69.9 47.8,69.9 47.7,69.7 47.5,69.4 47.4,69.2 43.7,63.6 38.9,59.7 32.1,58.8 c -1.6,-0.2 -3.1,-0.2 -4.7,0 -0.1,0.1 -0.1,0.3 -0.2,0.4 -0.6,2.8 -0.7,5.7 -0.1,8.6 0.9,4.5 2.9,8.4 5.8,11.8 1.9,2.2 4.2,4.1 6.9,5.2 2.9,1.2 5.9,1.4 9,1.3 3.1,-0.1 6.1,-0.7 9.1,-1 2.2,-0.3 4.4,-0.5 6.6,-0.7 1.7,-0.1 3.5,0 5.3,0.1 3.1,0.1 6.1,0.7 9.1,1.4 6.1,1.5 11.8,3.9 17.2,7 5.5,3.1 10.6,6.7 15.5,10.7 0.2,0.2 0.4,0.3 0.7,0.6 V 56 c 0,-0.5 -0.1,-0.8 -0.6,-1 -2.3,-1.1 -4.7,-2.1 -7.1,-2.8 -6.2,-1.9 -12.5,-2.8 -18.9,-1.8 -1.3,0.2 -2.6,0.4 -3.9,0.7 -2.1,0.4 -4.1,1.4 -6,2.5 -5.3,3 -9.3,7.3 -12.2,12.6 -0.1,0.1 -0.3,0.4 -0.5,0.8 m -0.8,-1.8 c 0.1,-0.1 0.1,-0.1 0.2,-0.1 0.1,-0.2 0.2,-0.4 0.3,-0.5 2.1,-3.6 4.7,-6.8 7.9,-9.4 0.4,-0.3 0.5,-0.7 0.4,-1.1 -0.3,-1.8 -0.893372,-2.269472 -1.793372,-3.869472 -0.3,-0.5 -0.480697,-0.443601 -0.980697,-0.543601 C 65.954045,49.142215 58.6,47.8 53.6,48.5 c -3.751773,0.800394 -7.713047,1.802766 -11.713047,4.502766 -0.3,0.2 -1.542613,1.012733 -1.642613,1.312733 C 39.664828,55.194807 39.1,56.9 39.6,59.3 c 0.1,0.4 0.3,0.6 0.6,0.8 3.2,1.9 5.8,4.4 7.9,7.4 0.1,0.2 0.3,0.3 0.4,0.5 4.3,-2.9 8.9,-3.8 13.8,-2.8 M 35.077734,57.554089 C 36.777734,58.154089 37.1,58.5 38.8,59.1 38.4,56.9 38.505037,56.619887 38.779812,54.846994 M 75.6,51.7 C 74.296675,51.092686 71.155424,50.009551 70.255424,49.909551 71.155424,51.509551 71.6,52.2 71.9,54 c 1.3,-0.7 2.5,-1.5 3.7,-2.3;M114 9.8v132c-.7.2-103.4.3-105.2.1 0-.2-.1-.3-.1-.5V9.9c35.1-.1 70.2-.1 105.3-.1M98 140.3c-.1-.8-.2-1.4-.3-2.1-.7-4.6-1.9-9-3.8-13.1-2-4.4-4.7-8.3-8.4-11.5-3.5-3.1-7.5-5.4-11.7-7.4-5.4-2.5-11.1-4.1-17-5q-8.7-1.35-16.5-5.4c-5.2-2.8-9.4-6.6-12.6-11.6-2.9-4.5-4.5-9.5-4.7-14.8-.1-2.6.2-5.2.8-7.7.2-.7.3-1.3.5-2.1-.4.1-.6.1-.9.2-3.1 1.1-5.9 2.7-8.3 5-1.9 1.9-3.5 4-4.7 6.4-.3.6-.4 1.1-.4 1.7v67.2c29.5.2 58.7.2 88 .2m14.5-129H10.2v56.4c3.8-5.4 8.8-9 15.2-10.4 3-13 10.5-21.6 23.5-24.9 5.4-1.4 10.8-1 16.1.8 8 2.8 13.9 8 17.8 15.5h.2c5.4-1.3 10.7-1.2 16.1-.2 4.4.8 8.6 2.2 12.6 4 .2.1.5.2.8.3zM63.1 67c-5.5-1.4-10.6-.4-15.1 3-.1-.1-.1-.1-.2-.1-.1-.2-.3-.5-.4-.7-3.7-5.6-8.5-9.5-15.3-10.4-1.6-.2-3.1-.2-4.7 0-.1.1-.1.3-.2.4-.6 2.8-.7 5.7-.1 8.6.9 4.5 2.9 8.4 5.8 11.8 1.9 2.2 4.2 4.1 6.9 5.2 2.9 1.2 5.9 1.4 9 1.3s6.1-.7 9.1-1c2.2-.3 4.4-.5 6.6-.7 1.7-.1 3.5 0 5.3.1 3.1.1 6.1.7 9.1 1.4 6.1 1.5 11.8 3.9 17.2 7 5.5 3.1 10.6 6.7 15.5 10.7.2.2.4.3.7.6V56c0-.5-.1-.8-.6-1-2.3-1.1-4.7-2.1-7.1-2.8-6.2-1.9-12.5-2.8-18.9-1.8-1.3.2-2.6.4-3.9.7-2.1.4-4.1 1.4-6 2.5-5.3 3-9.3 7.3-12.2 12.6-.1.1-.3.4-.5.8m-.8-1.8c.1-.1.1-.1.2-.1.1-.2.2-.4.3-.5 2.1-3.6 4.7-6.8 7.9-9.4.4-.3.5-.7.4-1.1-.3-1.8-.9-3.6-1.8-5.2-.3-.5-.6-.8-1.1-.9-4.8-1.7-9.6-2.2-14.6-1.5-4.8.7-9.1 2.3-13.1 5-.3.2-.6.5-.7.8-.6 2.3-.7 4.6-.2 7 .1.4.3.6.6.8 3.2 1.9 5.8 4.4 7.9 7.4.1.2.3.3.4.5 4.3-2.9 8.9-3.8 13.8-2.8M38.8 52.7c-1.9 1.4-3.6 2.9-5 4.7 1.7.6 3.3 1.1 5 1.7-.4-2.2-.4-4.3 0-6.4m36.8-1c-1.2-1-4.5-2.8-5.4-2.9.9 1.6 1.4 3.4 1.7 5.2 1.3-.7 2.5-1.5 3.7-2.3"
            dur="1s"
            repeatCount="indefinite"
            begin="indefinite"
            calcMode="spline"
            keySplines="0.42 0 0.58 1;0.42 0 0.58 1"
            keyTimes="0;0.5;1"
          />
  </path> <!-- Closing tag for the first path -->

  <!-- Other path for static parts -->
  <path fill="currentColor" d="M93.3 26.4c-.1.1-.2.4-.4.5-1 1.1-2 2.1-3 3.2l-7.8 8.4c-.1.2-.3.4-.5.4-.2.1-.5 0-.6-.1v-.5c0-.1.2-.3.3-.4 3.6-3.9 7.2-7.8 10.9-11.7l.4-.4c.3-.1.7.1.7.6M73.2 15.2c-.1.3-.1.4-.2.6-1.7 5-3.5 10-5.2 15-.2.6-.4.8-.8.7-.3-.1-.4-.4-.2-1 1.7-5 3.5-10.1 5.2-15.1.1-.2.1-.3.2-.4s.4-.2.5-.2c.3 0 .4.3.5.4m-42.6 3.5c.1.1.3.1.4.3s.2.4.3.5c2.6 4.4 5.1 8.9 7.7 13.3.1.2.3.4.3.6s0 .5-.2.5c-.2.1-.5 0-.6-.1s-.2-.3-.3-.5c-2.6-4.6-5.3-9.1-7.9-13.7-.1-.2-.2-.3-.2-.5-.2-.2.1-.4.5-.4m-2.7 25q0 .75-.6.6c-.2 0-.5-.2-.7-.3-4.4-2.2-8.7-4.3-13.1-6.5-.2-.1-.4-.1-.5-.3-.1-.1-.2-.4-.1-.6.1-.1.3-.3.5-.3s.3.1.5.2l13.2 6.6c.4.3.7.5.8.6m25.6-14.8c0 .3-.1.6-.5.6-.3 0-.5-.2-.5-.5-.1-.7-.2-1.3-.2-2-.4-4-.8-7.9-1.3-11.9v-.2c0-.3.1-.6.4-.7.4-.1.5.2.6.5.1.6.1 1.2.2 1.8.4 4 .8 8 1.3 12.1zm-20.6 9.8c0 .5-.3.7-.6.6-.2-.1-.3-.2-.4-.3l-4.5-4.5c-.5-.5-.5-.8-.2-1s.5-.2 1 .3l4.5 4.5c0 .1.1.3.2.4m57.7 1.4q-.3.45-.6.6c-.6.4-1.2.7-1.8 1.1-1.2.8-2.4 1.5-3.7 2.3-.2.1-.3.2-.5.3-.3.1-.5 0-.6-.2-.2-.2-.1-.5.1-.6.1-.1.2-.1.3-.2 1.8-1.2 3.7-2.3 5.5-3.5.1-.1.3-.2.4-.2.4.1.6.2.9.4M58.8 29.5c.2-.8.3-1.5.5-2.2.3-1.5.6-2.9 1-4.4v-.2c.1-.5.3-.7.7-.6.3.1.4.3.3.8-.5 2.1-.9 4.2-1.4 6.3 0 .1 0 .2-.1.3-.1.3-.3.5-.6.4-.2 0-.3-.3-.4-.4m15 5.3c-.5 0-.7-.3-.6-.6.1-.2.2-.3.3-.5 1.1-1.7 2.3-3.5 3.4-5.2.1-.1.2-.3.3-.4.2-.1.4-.2.6-.1.3.1.3.3.2.6 0 .1-.1.3-.2.4-1.1 1.8-2.3 3.5-3.5 5.3-.1.2-.3.3-.5.5M25 49.9c-.3 0-.4-.1-.5-.1-2-.4-4.1-.7-6.1-1.1-.2 0-.4 0-.5-.1s-.3-.3-.3-.5c0-.3.2-.4.5-.4h.4c2.1.4 4.1.7 6.2 1.1.2 0 .3 0 .5.1s.4.4.4.5c-.2.3-.5.4-.6.5m17.6-27.4c.2.1.4.2.5.3s.2.3.2.5c.7 1.9 1.5 3.9 2.2 5.8.1.2.2.4.1.5 0 .2-.2.4-.3.5s-.4 0-.5-.2c-.1-.1-.2-.3-.2-.4-.8-2-1.5-4-2.3-5.9-.1-.1-.2-.3-.1-.4.1-.3.2-.5.4-.7"/>

  <!-- Pupille path (assuming it's static or animated separately) -->
  <path id="pupille" fill="currentColor" d="M48.8 59.4c.8-.6 1.6-1.2 2.6-2-1.2-.1-2.2-.2-3.4-.3 1.1-.5 2.1-.6 3.1-1-.9-.6-1.9-.9-2.7-1.6 1 .1 2 .2 3.2.3-.8-.9-1.5-1.7-2.2-2.4l.1-.1c.9.5 1.8.9 2.7 1.4l.1-.1c-.4-1-.7-1.9-1.1-2.9l.1-.1c.7.8 1.4 1.5 2.2 2.4v-3.1h.2c.4.9.7 1.8 1.2 2.9.4-1.1.8-2 1.1-2.9h.1V53c.9-.8 1.5-1.7 2.4-2.3-.4 1-.7 1.9-1.2 3.1 1.1-.5 2-1 2.9-1.4l.1.1c-.7.7-1.4 1.5-2 2.2 0 0 0 .1.1.1l3-.3s0 .1.1.1c-.9.5-1.8.9-2.9 1.5 1.1.3 2.1.6 3.1.9v.1l-3 .3c0 .1 0 .1-.1.2l2.4 1.8s0 .1-.1.1c-1-.3-1.9-.5-2.9-.8l-.1.1c.5.9 1.1 1.7 1.5 2.7-.8-.6-1.6-1.2-2.6-1.9.2 1.2.4 2.2.6 3.2 0 0-.1 0-.1.1-.3-.4-.5-.8-.8-1.3-.3-.4-.5-.9-.9-1.4-.4 1.1-.4 2.1-.8 3.1-.2-1-.4-1.9-.6-3.1-.4.6-.6 1-.9 1.4s-.5.9-.8 1.3h-.2c.2-1 .4-2 .6-3.1-1 .6-1.7 1.3-2.7 1.7.5-.8 1-1.7 1.7-2.7-1.2.3-2.2.6-3.2.9z"/>
</svg>
